<svg xmlns="http://www.w3.org/2000/svg" xmlns:xlink="http://www.w3.org/1999/xlink" width="30" height="32" viewBox="0 0 30 32" fill="none"><g opacity="1" transform="translate(2.842170943040401e-14 2.1316282072803006e-14)  rotate(0 14.98952239097375 15.652173913043475)"><g opacity="1" transform="translate(0 0)  rotate(0 14.98952239097375 15.652173913043475)"><path id="路径" fill-rule="evenodd" style="fill:#51B44E" transform="translate(11.40685110006655 3.043821962536526)  rotate(0 6.64824578028052 14.09314315174428)" opacity="1" d="M7.1,18.31C5.97,12 0,6.63 0,6.63C4.78,17.37 1.57,28.19 1.57,28.19C4.21,27.86 13.12,23.76 13.29,14.55C13.47,5.34 7.57,0 7.57,0C11.72,11.26 7.1,18.31 7.1,18.31Z " /><path id="路径" fill-rule="evenodd" style="fill:#E59D1B" transform="translate(9.026046234657315 0.05984848470643556)  rotate(0 4.227312847369411 4.337836541286592)" opacity="1" d="M0.12,8.68C0.14,8.68 3.03,2.71 8.45,0.11C8.45,0.11 -1.15,-1.64 0.12,8.68Z " /><path id="路径" fill-rule="evenodd" style="fill:#E59D1B" transform="translate(3.284758235912818 1.831242481526033)  rotate(0 2.542700262760118 6.70630692558858)" opacity="1" d="M5.09,13.41C5.09,13.41 2.99,5.72 3.72,0C3.72,0 -5.49,9.28 5.09,13.41Z " /><path id="路径" fill-rule="evenodd" style="fill:#E59D1B" transform="translate(0 11.11118748925924)  rotate(0 5.00642971715943 5.852565450939665)" opacity="1" d="M10.01,11.71C9.76,11.11 7.7,8.04 5.33,6.36C2.97,4.68 0.68,0 0.68,0C-3.08,11.8 10.01,11.71 10.01,11.71Z " /><path id="路径" fill-rule="evenodd" style="fill:#E59D1B" transform="translate(1.350196940029264 22.64306581886922)  rotate(0 5.252361454871005 4.330641003608868)" opacity="1" d="M10.5,8.66C10.43,5.3 8.17,3.81 5.45,2.87C2.74,1.93 0,0 0,0C1.97,7.97 10.5,8.66 10.5,8.66Z " /><path id="路径" fill-rule="evenodd" style="fill:#279D50" transform="translate(17.6300281792976 0)  rotate(0 6.17450830132495 15.60268087300222)" opacity="1" d="M8.56,16.26C8.69,25.74 0,31.21 0,31.21C12.82,27.79 12.35,17.3 12.35,17.3C12.02,2.92 1.05,0 1.05,0C9.31,6.43 8.56,16.26 8.56,16.26Z " /></g></g></svg>